<svg xmlns="http://www.w3.org/2000/svg" style="display:none" aria-hidden="true">
  <!-- Eigen set voor Sang Lee: 24x24, lijndikte 2, ronde uiteinden.
       Getekend op basis van Lucide-vormen (MIT), aangepast aan het merk. -->
  <symbol id="i-tas" viewBox="0 0 24 24" fill="none" stroke="currentColor" stroke-width="2" stroke-linecap="round" stroke-linejoin="round">
    <path d="M6 7h12l1.2 12.2a1.8 1.8 0 0 1-1.8 1.8H6.6a1.8 1.8 0 0 1-1.8-1.8L6 7Z"/>
    <path d="M9 10V6a3 3 0 0 1 6 0v4"/>
  </symbol>
  <symbol id="i-telefoon" viewBox="0 0 24 24" fill="none" stroke="currentColor" stroke-width="2" stroke-linecap="round" stroke-linejoin="round">
    <path d="M21.5 17.4v2.6a1.9 1.9 0 0 1-2.1 1.9 19.3 19.3 0 0 1-8.4-3 19 19 0 0 1-5.9-5.9 19.3 19.3 0 0 1-3-8.4A1.9 1.9 0 0 1 4 2.5h2.6a1.9 1.9 0 0 1 1.9 1.6c.12.94.35 1.86.67 2.75a1.9 1.9 0 0 1-.43 2L7.6 10a15.2 15.2 0 0 0 6.4 6.4l1.2-1.14a1.9 1.9 0 0 1 2-.43c.89.32 1.81.55 2.75.67a1.9 1.9 0 0 1 1.55 1.9Z"/>
  </symbol>
  <symbol id="i-kruis" viewBox="0 0 24 24" fill="none" stroke="currentColor" stroke-width="2" stroke-linecap="round">
    <path d="M6 6l12 12M18 6L6 18"/>
  </symbol>
  <symbol id="i-pijl" viewBox="0 0 24 24" fill="none" stroke="currentColor" stroke-width="2" stroke-linecap="round" stroke-linejoin="round">
    <path d="M4 12h16m-6-6 6 6-6 6"/>
  </symbol>
  <symbol id="i-ster" viewBox="0 0 24 24" fill="currentColor" stroke="currentColor" stroke-width="1" stroke-linejoin="round">
    <path d="M12 2.8l2.8 5.9 6.4.8-4.7 4.4 1.2 6.3L12 17.1l-5.7 3.1 1.2-6.3L2.8 9.5l6.4-.8L12 2.8Z"/>
  </symbol>
  <symbol id="i-klok" viewBox="0 0 24 24" fill="none" stroke="currentColor" stroke-width="2" stroke-linecap="round" stroke-linejoin="round">
    <circle cx="12" cy="12" r="9"/>
    <path d="M12 7v5l3.2 1.9"/>
  </symbol>
  <symbol id="i-pin" viewBox="0 0 24 24" fill="none" stroke="currentColor" stroke-width="2" stroke-linecap="round" stroke-linejoin="round">
    <path d="M12 21.5s-7.5-6.4-7.5-11A7.5 7.5 0 0 1 19.5 10.5c0 4.6-7.5 11-7.5 11Z"/>
    <circle cx="12" cy="10.3" r="2.6"/>
  </symbol>
  <symbol id="i-fiets" viewBox="0 0 24 24" fill="none" stroke="currentColor" stroke-width="2" stroke-linecap="round" stroke-linejoin="round">
    <circle cx="6" cy="16.5" r="3.5"/>
    <circle cx="18" cy="16.5" r="3.5"/>
    <path d="M6 16.5 9.5 9h5M18 16.5 14.8 9M9.5 9 12 13.5h4.5M13.5 6h2.5"/>
  </symbol>
  <symbol id="i-vink" viewBox="0 0 24 24" fill="none" stroke="currentColor" stroke-width="2.4" stroke-linecap="round" stroke-linejoin="round">
    <path d="M4.5 12.8 9.6 18 19.5 6.8"/>
  </symbol>
  <symbol id="i-mail" viewBox="0 0 24 24" fill="none" stroke="currentColor" stroke-width="2" stroke-linecap="round" stroke-linejoin="round">
    <rect x="2.5" y="5" width="19" height="14" rx="2.5"/>
    <path d="m3.5 7 8.5 6 8.5-6"/>
  </symbol>
  <symbol id="i-bord" viewBox="0 0 24 24" fill="none" stroke="currentColor" stroke-width="2" stroke-linecap="round">
    <circle cx="12" cy="12" r="9.2"/>
    <circle cx="12" cy="12" r="5"/>
  </symbol>
  <symbol id="i-wok" viewBox="0 0 24 24" fill="none" stroke="currentColor" stroke-width="2" stroke-linecap="round" stroke-linejoin="round">
    <path d="M3.5 11h13a6.5 6.5 0 0 1-13 0Z"/>
    <path d="M16.5 11l4.5-3M7 7.5c.8-.8.4-1.6 0-2.2M11 7.5c.8-.8.4-1.6 0-2.2"/>
  </symbol>
  <symbol id="i-camera" viewBox="0 0 24 24" fill="none" stroke="currentColor" stroke-width="2" stroke-linecap="round" stroke-linejoin="round">
    <path d="M14.5 4h-5L7.5 6.5H4.5a2 2 0 0 0-2 2V18a2 2 0 0 0 2 2h15a2 2 0 0 0 2-2V8.5a2 2 0 0 0-2-2h-3L14.5 4Z"/>
    <circle cx="12" cy="13" r="3.5"/>
  </symbol>
</svg>
